<svg width="24" height="24" viewBox="0 0 24 24" fill="none" xmlns="http://www.w3.org/2000/svg">
<path d="M18 10.5V19.125C18 19.3712 17.9515 19.615 17.8573 19.8425C17.763 20.07 17.6249 20.2767 17.4508 20.4508C17.2767 20.6249 17.07 20.763 16.8425 20.8573C16.615 20.9515 16.3712 21 16.125 21H4.875C4.37772 21 3.90081 20.8025 3.54917 20.4508C3.19754 20.0992 3 19.6223 3 19.125V7.875C3 7.37772 3.19754 6.90081 3.54917 6.54917C3.90081 6.19754 4.37772 6 4.875 6H12.7256" stroke="#F2F2F2" stroke-linecap="round" stroke-linejoin="round"/>
<path d="M21.5597 2.49611C21.4912 2.42085 21.4081 2.36025 21.3156 2.31799C21.223 2.27573 21.1228 2.25267 21.0211 2.25022C20.9193 2.24777 20.8182 2.26596 20.7237 2.30371C20.6292 2.34147 20.5433 2.39798 20.4712 2.46986L19.8914 3.04689C19.8211 3.11721 19.7817 3.21255 19.7817 3.31197C19.7817 3.41138 19.8211 3.50673 19.8914 3.57704L20.423 4.10767C20.4578 4.14268 20.4992 4.17046 20.5448 4.18941C20.5904 4.20837 20.6394 4.21812 20.6887 4.21812C20.7381 4.21812 20.787 4.20837 20.8327 4.18941C20.8783 4.17046 20.9197 4.14268 20.9545 4.10767L21.5198 3.54517C21.8058 3.2597 21.8325 2.7947 21.5597 2.49611ZM18.7191 4.21876L10.2572 12.6656C10.2059 12.7167 10.1686 12.7802 10.1489 12.8499L9.7575 14.0156C9.74812 14.0473 9.74746 14.0808 9.75557 14.1128C9.76369 14.1448 9.78029 14.174 9.80362 14.1973C9.82695 14.2207 9.85614 14.2373 9.88812 14.2454C9.9201 14.2535 9.95368 14.2528 9.98531 14.2435L11.1502 13.852C11.2198 13.8324 11.2833 13.7951 11.3344 13.7438L19.7812 5.28095C19.8594 5.20197 19.9032 5.09534 19.9032 4.98423C19.9032 4.87312 19.8594 4.7665 19.7812 4.68751L19.3148 4.21876C19.2358 4.1399 19.1286 4.09562 19.0169 4.09562C18.9053 4.09562 18.7981 4.1399 18.7191 4.21876Z" fill="#E5E5E5"/>
</svg>
