<svg width="20" height="20" viewBox="0 0 20 20" fill="none" xmlns="http://www.w3.org/2000/svg">
<path d="M4.75 2.875C4.75 1.83947 3.91053 1 2.875 1C1.83947 1 1 1.83947 1 2.875C1 3.91053 1.83947 4.75 2.875 4.75C3.91053 4.75 4.75 3.91053 4.75 2.875Z" stroke="#0F0E35" stroke-miterlimit="10"/>
<path d="M11.875 2.875C11.875 1.83947 11.0355 1 10 1C8.96447 1 8.125 1.83947 8.125 2.875C8.125 3.91053 8.96447 4.75 10 4.75C11.0355 4.75 11.875 3.91053 11.875 2.875Z" fill="#0F0E35" stroke="black" stroke-miterlimit="10"/>
<path d="M19 2.875C19 1.83947 18.1605 1 17.125 1C16.0895 1 15.25 1.83947 15.25 2.875C15.25 3.91053 16.0895 4.75 17.125 4.75C18.1605 4.75 19 3.91053 19 2.875Z" stroke="black" stroke-miterlimit="10"/>
<path d="M4.75 10C4.75 8.96447 3.91053 8.125 2.875 8.125C1.83947 8.125 1 8.96447 1 10C1 11.0355 1.83947 11.875 2.875 11.875C3.91053 11.875 4.75 11.0355 4.75 10Z" stroke="black" stroke-miterlimit="10"/>
<path d="M11.875 10C11.875 8.96447 11.0355 8.125 10 8.125C8.96447 8.125 8.125 8.96447 8.125 10C8.125 11.0355 8.96447 11.875 10 11.875C11.0355 11.875 11.875 11.0355 11.875 10Z" stroke="black" stroke-miterlimit="10"/>
<path d="M19 10C19 8.96447 18.1605 8.125 17.125 8.125C16.0895 8.125 15.25 8.96447 15.25 10C15.25 11.0355 16.0895 11.875 17.125 11.875C18.1605 11.875 19 11.0355 19 10Z" stroke="black" stroke-miterlimit="10"/>
<path d="M4.75 17.125C4.75 16.0895 3.91053 15.25 2.875 15.25C1.83947 15.25 1 16.0895 1 17.125C1 18.1605 1.83947 19 2.875 19C3.91053 19 4.75 18.1605 4.75 17.125Z" stroke="black" stroke-miterlimit="10"/>
<path d="M11.875 17.125C11.875 16.0895 11.0355 15.25 10 15.25C8.96447 15.25 8.125 16.0895 8.125 17.125C8.125 18.1605 8.96447 19 10 19C11.0355 19 11.875 18.1605 11.875 17.125Z" stroke="black" stroke-miterlimit="10"/>
<path d="M19 17.125C19 16.0895 18.1605 15.25 17.125 15.25C16.0895 15.25 15.25 16.0895 15.25 17.125C15.25 18.1605 16.0895 19 17.125 19C18.1605 19 19 18.1605 19 17.125Z" stroke="black" stroke-miterlimit="10"/>
</svg>
