<svg width="24" height="24" viewBox="0 0 24 24" fill="none" xmlns="http://www.w3.org/2000/svg">
<path d="M5.25 5.25L6.1875 20.25C6.23203 21.1167 6.8625 21.75 7.6875 21.75H16.3125C17.1408 21.75 17.7595 21.1167 17.8125 20.25L18.75 5.25" stroke="#F2F2F2" stroke-linecap="round" stroke-linejoin="round"/>
<path d="M3.75 5.25H20.25H3.75Z" fill="#F2F2F2"/>
<path d="M3.75 5.25H20.25" stroke="#F2F2F2" stroke-miterlimit="10" stroke-linecap="round"/>
<path d="M15.375 8.25002L15 18.75M9 5.25002V3.37502C8.99957 3.22716 9.02837 3.08068 9.08475 2.94399C9.14114 2.8073 9.22399 2.68311 9.32854 2.57856C9.43309 2.47401 9.55728 2.39116 9.69397 2.33477C9.83066 2.27839 9.97714 2.24959 10.125 2.25002H13.875C14.0229 2.24959 14.1693 2.27839 14.306 2.33477C14.4427 2.39116 14.5669 2.47401 14.6715 2.57856C14.776 2.68311 14.8589 2.8073 14.9152 2.94399C14.9716 3.08068 15.0004 3.22716 15 3.37502V5.25002H9ZM12 8.25002V18.75V8.25002ZM8.625 8.25002L9 18.75L8.625 8.25002Z" stroke="#F2F2F2" stroke-linecap="round" stroke-linejoin="round"/>
</svg>
